<?xml version="1.0" standalone="no"?>
<!DOCTYPE svg PUBLIC "-//W3C//DTD SVG 20010904//EN"
 "http://www.w3.org/TR/2001/REC-SVG-20010904/DTD/svg10.dtd">
<svg version="1.0" xmlns="http://www.w3.org/2000/svg"
 width="244.000000pt" height="244.000000pt" viewBox="0 0 244.000000 244.000000"
 preserveAspectRatio="xMidYMid meet">
<metadata>
Created by potrace 1.14, written by Peter Selinger 2001-2017
</metadata>
<g transform="translate(0.000000,244.000000) scale(0.100000,-0.100000)"
fill="#000000" stroke="none">
<path d="M997 2417 c-10 -26 -9 -55 2 -62 14 -8 18 6 11 45 -4 27 -7 31 -13
17z"/>
<path d="M1021 2339 c-13 -77 -20 -85 -59 -65 -44 23 -50 38 -13 31 31 -5 31
-5 30 37 0 24 -3 36 -6 28 -3 -8 -21 -29 -40 -46 l-35 -30 26 -25 c15 -13 36
-39 47 -57 12 -19 27 -31 35 -28 7 3 41 -17 75 -45 34 -27 65 -49 70 -49 5 0
-18 26 -51 58 l-60 58 4 79 c3 44 6 86 8 94 2 7 -2 15 -8 18 -7 2 -16 -20 -23
-58z"/>
<path d="M1294 2381 c-28 -12 -50 -49 -52 -90 -3 -39 -10 -54 -22 -46 -5 3
-11 1 -15 -5 -3 -5 -2 -10 4 -10 20 0 39 -30 37 -59 -2 -26 3 -32 28 -41 20
-7 32 -7 34 -1 7 22 44 61 57 61 8 0 20 -10 26 -22 18 -34 33 -40 39 -16 6 23
29 31 51 17 11 -7 11 -9 1 -9 -10 0 -10 -5 -2 -21 18 -32 2 -99 -30 -131 -29
-29 -29 -32 4 -28 25 2 44 22 57 60 6 16 17 30 25 30 12 0 12 4 4 20 -6 12
-10 33 -8 48 3 23 7 27 31 24 35 -4 36 20 2 36 -22 10 -25 18 -25 59 0 70 -9
92 -43 110 -35 18 -172 27 -203 14z m117 -96 c38 -31 69 -58 69 -61 0 -5 -92
2 -155 12 -52 9 -69 40 -45 85 19 34 58 23 131 -36z"/>
<path d="M1071 2366 c-8 -10 -9 -16 -1 -21 5 -3 10 -1 10 4 0 6 7 11 15 11 8
0 15 5 15 10 0 15 -26 12 -39 -4z"/>
<path d="M1080 2330 c-8 -5 -12 -11 -9 -14 7 -8 49 5 49 15 0 12 -21 11 -40
-1z"/>
<path d="M874 2267 c1 -17 -8 -25 -41 -37 -48 -16 -54 -27 -20 -32 38 -5 34
-49 -8 -87 -35 -30 -36 -33 -21 -50 20 -22 115 -69 155 -77 18 -4 38 0 53 10
14 9 58 23 98 32 41 8 78 18 83 21 16 10 -19 23 -80 29 -32 3 -63 7 -69 9 -6
2 -27 -9 -45 -24 -36 -28 -75 -37 -98 -22 -13 8 -9 23 22 95 20 47 37 89 37
94 0 9 -35 44 -56 55 -6 4 -10 -3 -10 -16z"/>
<path d="M1730 2243 c-8 -3 -25 -15 -37 -26 -18 -16 -20 -24 -11 -40 9 -17 8
-19 -6 -14 -26 10 -44 -2 -56 -39 -7 -21 -20 -36 -33 -40 -17 -4 -23 -14 -25
-42 -2 -20 -4 -48 -5 -62 -2 -20 2 -24 19 -22 24 3 44 -17 47 -47 2 -29 14
-26 20 4 3 17 -1 30 -13 38 -23 16 -32 81 -14 104 7 10 14 29 14 43 1 44 40
76 40 33 0 -7 12 -32 28 -56 15 -23 30 -49 33 -57 6 -15 -19 -70 -32 -70 -14
0 -16 -40 -2 -59 18 -27 42 -27 52 0 7 21 9 20 30 -15 13 -20 27 -34 32 -30
10 6 5 19 -18 46 -8 9 -21 34 -29 55 -14 36 -14 37 -13 8 2 -38 -9 -65 -26
-65 -33 0 -25 40 17 87 12 12 17 27 13 34 -5 8 -4 10 3 5 7 -4 12 -23 12 -43
0 -26 8 -42 30 -63 17 -15 30 -33 30 -39 0 -13 17 -15 24 -2 3 5 -1 14 -9 21
-19 16 -19 30 0 30 8 0 15 3 15 8 1 24 18 33 43 21 45 -20 43 -60 -4 -93 -25
-17 -17 -36 14 -35 12 0 16 3 10 6 -19 7 12 62 42 73 18 7 25 19 30 54 9 55 2
76 -26 83 -16 4 -17 8 -7 14 10 7 9 9 -4 9 -13 0 -16 7 -11 34 4 29 1 39 -23
60 -16 15 -43 40 -60 57 -23 23 -42 32 -75 35 -24 2 -51 1 -59 -3z m81 -33
l24 -21 -34 16 c-21 11 -45 15 -65 11 -22 -4 -27 -3 -16 4 25 16 66 11 91 -10z
m-53 -41 c22 -1 23 -2 5 -6 -26 -5 -86 24 -78 37 3 5 15 0 25 -10 11 -11 32
-21 48 -21z m75 -16 c-7 -2 -19 -2 -25 0 -7 3 -2 5 12 5 14 0 19 -2 13 -5z
m85 -75 c-1 -14 4 -34 12 -45 13 -17 13 -17 -5 0 -11 10 -20 33 -22 54 -1 20
-7 41 -13 47 -5 5 -10 15 -10 21 0 5 9 -3 20 -20 11 -16 19 -42 18 -57z m-204
49 c20 11 96 4 96 -9 0 -5 -10 -6 -21 -3 -17 6 -20 4 -13 -6 6 -10 1 -9 -16 2
-29 19 -58 15 -37 -5 6 -6 26 -18 44 -25 17 -7 34 -20 38 -28 7 -19 -3 -32
-13 -17 -4 6 -22 19 -41 29 -36 18 -70 52 -71 70 0 6 4 4 9 -4 6 -9 14 -10 25
-4z m150 -23 c9 -8 16 -20 16 -26 0 -6 -9 -1 -19 11 -12 14 -25 20 -32 15 -8
-4 -9 -3 -5 4 10 16 22 15 40 -4z m-6 -82 c15 -26 5 -29 -15 -4 -12 15 -13 14
-2 -8 7 -14 17 -28 23 -32 13 -9 -33 -50 -46 -41 -6 3 -7 22 -3 47 4 22 7 51
7 63 0 25 12 16 36 -25z m77 -22 c19 -8 19 -9 -2 -9 -12 -1 -25 4 -28 9 -7 12
2 12 30 0z m55 -16 c0 -8 -4 -12 -10 -9 -5 3 -10 13 -10 21 0 8 5 12 10 9 6
-3 10 -13 10 -21z m-36 -30 c18 -17 21 -44 6 -44 -5 0 -10 6 -10 14 0 8 -10
22 -22 30 -18 13 -19 16 -6 16 9 0 24 -7 32 -16z"/>
<path d="M1305 1987 c10 -6 40 -31 65 -54 l45 -43 -47 0 c-27 0 -50 -1 -53 -2
-2 -1 -31 -5 -62 -8 -50 -6 -62 -4 -88 15 -41 30 -96 58 -102 51 -3 -3 5 -10
18 -15 13 -5 37 -21 52 -37 l28 -28 -53 -16 c-130 -40 -245 -127 -289 -216
-27 -57 -29 -144 -6 -225 29 -98 124 -178 267 -224 30 -10 56 -19 58 -20 3 -3
-77 -127 -88 -135 -3 -3 -22 -28 -43 -56 -71 -99 -243 -239 -303 -246 -10 -1
-56 10 -101 24 -104 35 -223 55 -301 52 -63 -2 -122 -19 -122 -35 0 -5 12 -3
28 5 51 26 147 8 322 -61 79 -31 78 -30 49 -43 -24 -10 -24 -10 3 -7 l27 4
-23 -31 c-13 -17 -27 -42 -31 -56 -4 -14 -26 -45 -47 -70 -37 -42 -38 -45 -21
-58 20 -14 67 -11 101 7 12 6 35 32 52 57 18 25 37 43 43 41 12 -4 14 -10 16
-55 0 -13 5 -21 10 -17 5 3 7 39 5 80 l-5 74 67 -30 c37 -17 83 -41 103 -53
20 -12 61 -33 92 -46 l57 -23 -3 -71 c-2 -47 -11 -88 -26 -121 -17 -38 -22
-66 -20 -114 1 -36 4 -68 7 -73 3 -4 55 -7 117 -7 65 1 103 5 91 9 -27 11 -81
65 -100 102 -20 38 -20 137 -2 198 13 41 17 45 46 46 18 1 32 0 32 -1 0 -2 -9
-22 -20 -46 -26 -58 -27 -145 -2 -151 16 -5 18 2 19 66 1 92 15 130 46 122 12
-3 36 -6 52 -6 23 -1 49 -19 119 -84 80 -74 89 -86 91 -122 4 -53 -17 -91 -56
-99 -44 -10 -23 -27 37 -30 63 -3 106 10 122 36 17 26 10 34 -16 20 -40 -22
-44 -15 -40 64 l5 74 -36 29 c-20 16 -58 45 -84 65 -27 20 -45 37 -40 38 4 0
44 2 89 4 l80 3 52 -91 c101 -177 118 -202 138 -200 24 2 54 -15 54 -31 0 -16
86 -21 95 -6 8 13 48 13 62 -1 14 -14 195 -8 200 7 2 5 -27 25 -64 42 -38 18
-87 50 -111 73 -64 63 -219 271 -205 276 35 12 122 80 150 116 69 92 83 236
30 315 -73 109 -203 190 -383 236 -58 15 -98 24 -119 25 -5 1 -3 6 5 11 11 8
8 9 -12 4 -27 -6 -124 12 -141 27 -10 8 100 189 181 298 70 95 179 201 243
235 28 16 73 30 104 33 50 5 56 4 84 -25 33 -33 41 -30 13 4 -28 34 -62 47
-117 45 -91 -2 -319 65 -408 120 -27 17 -62 35 -76 40 -23 7 -24 7 -6 -4z
m160 -140 c53 -14 152 -48 164 -56 11 -7 8 -12 -15 -24 -30 -16 -104 -85 -163
-152 -44 -49 -171 -230 -212 -301 -30 -54 -31 -54 -67 -48 -91 16 -245 121
-281 192 -7 13 -13 56 -13 96 -1 63 2 80 26 120 39 66 141 140 228 164 l38 10
11 -40 c35 -130 -82 -304 -216 -321 -17 -2 -8 -5 23 -6 94 -2 175 48 218 135
31 64 38 131 18 187 -8 22 -14 43 -14 47 0 9 222 6 255 -3z m-4 -762 c240 -63
298 -86 354 -142 89 -90 110 -180 63 -280 -47 -100 -224 -188 -399 -197 l-74
-5 41 17 c56 23 120 69 140 101 l17 26 -29 -26 c-121 -108 -235 -121 -442 -47
-48 17 -103 39 -123 49 -37 18 -169 155 -169 174 0 5 26 27 58 47 66 42 173
148 233 228 89 120 80 112 120 106 20 -3 114 -26 210 -51z m-790 -431 l30 -15
-41 -50 c-23 -27 -46 -49 -50 -49 -5 0 -15 -3 -24 -6 -28 -11 -19 49 14 94 17
23 33 42 36 42 3 0 18 -7 35 -16z"/>
<path d="M738 1943 c16 -29 15 -43 -2 -43 -27 0 -144 -129 -175 -193 -98 -208
-28 -421 170 -515 71 -34 175 -62 224 -61 17 0 -3 7 -42 14 -213 38 -341 169
-349 353 -1 43 2 98 7 122 27 126 134 263 240 308 30 13 43 20 29 17 -37 -10
-82 -6 -98 8 -13 10 -14 9 -4 -10z"/>
<path d="M1921 1654 c0 -11 3 -14 6 -6 3 7 2 16 -1 19 -3 4 -6 -2 -5 -13z"/>
<path d="M1886 1573 c-6 -14 -5 -15 5 -6 7 7 10 15 7 18 -3 3 -9 -2 -12 -12z"/>
<path d="M1859 1533 c-13 -16 -12 -17 4 -4 9 7 17 15 17 17 0 8 -8 3 -21 -13z"/>
<path d="M1699 1373 c-13 -17 -13 -17 6 -3 11 8 22 16 24 17 2 2 0 3 -6 3 -6
0 -17 -8 -24 -17z"/>
<path d="M1619 1313 c-13 -16 -12 -17 4 -4 9 7 17 15 17 17 0 8 -8 3 -21 -13z"/>
<path d="M1560 1280 c-9 -6 -10 -10 -3 -10 6 0 15 5 18 10 8 12 4 12 -15 0z"/>
<path d="M1480 1235 c-11 -13 -10 -14 4 -9 9 3 16 10 16 15 0 13 -6 11 -20 -6z"/>
<path d="M1038 1123 c7 -3 16 -2 19 1 4 3 -2 6 -13 5 -11 0 -14 -3 -6 -6z"/>
<path d="M141 784 c0 -11 3 -14 6 -6 3 7 2 16 -1 19 -3 4 -6 -2 -5 -13z"/>
<path d="M155 749 c-4 -6 -5 -12 -2 -15 2 -3 7 2 10 11 7 17 1 20 -8 4z"/>
<path d="M165 680 c10 -11 20 -20 23 -20 3 0 -3 9 -13 20 -10 11 -20 20 -23
20 -3 0 3 -9 13 -20z"/>
<path d="M200 656 c0 -2 7 -7 16 -10 8 -3 12 -2 9 4 -6 10 -25 14 -25 6z"/>
<path d="M506 651 c-3 -4 6 -6 19 -3 14 2 25 6 25 8 0 8 -39 4 -44 -5z"/>
</g>
</svg>
